<svg width="111" height="26" viewBox="0 0 111 26" fill="none" xmlns="http://www.w3.org/2000/svg">
<path d="M3.62174 25.5C3.15673 25.5 2.66489 25.4644 2.14622 25.3933C1.64543 25.3399 1.25196 25.2599 0.965798 25.1531V22.5918C1.41293 22.7697 1.96737 22.8586 2.62912 22.8586C3.30875 22.8586 3.81848 22.7074 4.1583 22.405C4.49812 22.1026 4.79322 21.6224 5.04361 20.9642L5.55334 19.6302L0 7.41035H3.40712L7.37763 16.7487L11.1067 7.41035H14.487L8.85315 21.3645C8.28083 22.7697 7.58331 23.8102 6.76059 24.4861C5.95576 25.162 4.90948 25.5 3.62174 25.5Z" fill="white"/>
<path d="M19.5891 20.6174C18.0509 20.6174 16.79 20.2172 15.8064 19.4168C14.8227 18.5985 14.3308 17.5046 14.3308 16.135C14.3308 14.712 14.7958 13.6003 15.7259 12.7999C16.6559 11.9995 17.9615 11.5993 19.6427 11.5993C21.2703 11.5993 22.6743 11.9283 23.8547 12.5864V12.2396C23.8547 11.3324 23.5685 10.6743 22.9962 10.2652C22.4417 9.8561 21.5385 9.65155 20.2866 9.65155C19.4996 9.65155 18.7216 9.73159 17.9526 9.89167C17.1835 10.034 16.5039 10.2385 15.9137 10.5053V7.86393C16.4502 7.6149 17.1656 7.41035 18.0599 7.25027C18.972 7.09018 19.8484 7.01014 20.689 7.01014C22.9246 7.01014 24.579 7.49039 25.6521 8.45091C26.7252 9.39363 27.2618 10.7099 27.2618 12.3997V20.2172H24.0693V18.9632C23.5149 19.4968 22.8799 19.9059 22.1645 20.1905C21.467 20.4751 20.6085 20.6174 19.5891 20.6174ZM20.4207 18.1628C21.1719 18.1628 21.8515 18.0205 22.4596 17.7359C23.0677 17.4335 23.5327 17.0244 23.8547 16.5085V15.0944C22.871 14.4007 21.7442 14.0539 20.4744 14.0539C18.668 14.0539 17.7648 14.7476 17.7648 16.135C17.7648 16.8109 17.9883 17.3179 18.4355 17.6558C18.9005 17.9938 19.5622 18.1628 20.4207 18.1628Z" fill="white"/>
<path d="M34.9748 20.6174C34.0447 20.6174 33.0521 20.5107 31.9969 20.2972C30.9417 20.0838 30.119 19.7903 29.5287 19.4168V16.5619C30.2263 16.9888 31.0579 17.3356 32.0237 17.6025C32.9895 17.8515 33.9017 17.976 34.7601 17.976C35.6186 17.976 36.2446 17.9048 36.6381 17.7625C37.0316 17.6025 37.2283 17.3179 37.2283 16.9088C37.2283 16.5886 37.121 16.3307 36.9064 16.135C36.7096 15.9216 36.3788 15.7348 35.9137 15.5747C35.4666 15.3968 34.7691 15.1834 33.8212 14.9344C32.7481 14.632 31.8985 14.3207 31.2725 14.0005C30.6644 13.6804 30.1994 13.2801 29.8775 12.7999C29.5735 12.3018 29.4214 11.6615 29.4214 10.8789C29.4214 9.59818 29.9312 8.63767 30.9506 7.99733C31.9701 7.3392 33.3472 7.01014 35.0821 7.01014C35.9763 7.01014 36.8617 7.09907 37.738 7.27695C38.6323 7.43703 39.3298 7.66827 39.8306 7.97065V10.7188C39.294 10.3986 38.6412 10.1407 37.8722 9.94504C37.1031 9.74938 36.3162 9.65155 35.5113 9.65155C34.635 9.65155 33.9732 9.74048 33.5261 9.91836C33.0789 10.0784 32.8554 10.3986 32.8554 10.8789C32.8554 11.199 32.9716 11.457 33.2041 11.6526C33.4545 11.8305 33.7765 11.9906 34.1699 12.1329C34.5634 12.2574 35.2788 12.453 36.3162 12.7198C37.425 13.0222 38.2925 13.3513 38.9184 13.707C39.5444 14.0628 39.9916 14.4897 40.2598 14.9877C40.5281 15.4858 40.6623 16.1083 40.6623 16.8554C40.6623 17.9938 40.1704 18.9098 39.1867 19.6035C38.2209 20.2794 36.8169 20.6174 34.9748 20.6174Z" fill="white"/>
<path d="M45.2504 5.16916C44.7139 5.16916 44.2578 4.99128 43.8822 4.63554C43.5245 4.27979 43.3457 3.83511 43.3457 3.30149C43.3457 2.76788 43.5245 2.32319 43.8822 1.96745C44.2578 1.59392 44.7139 1.40715 45.2504 1.40715C45.787 1.40715 46.243 1.59392 46.6186 1.96745C46.9942 2.32319 47.182 2.76788 47.182 3.30149C47.182 3.83511 46.9942 4.27979 46.6186 4.63554C46.243 4.99128 45.787 5.16916 45.2504 5.16916ZM43.5334 7.41035H46.9674V20.2172H43.5334V7.41035Z" fill="white"/>
<path d="M50.3932 7.41035H53.6662V9.14461C54.2743 8.41533 54.9986 7.88171 55.8392 7.54376C56.6798 7.18801 57.5651 7.01014 58.4951 7.01014C60.23 7.01014 61.5267 7.4815 62.3852 8.42422C63.2437 9.34916 63.6729 10.5854 63.6729 12.1329V20.2172H60.2926V12.453C60.2926 10.5854 59.4162 9.65155 57.6635 9.65155C56.8944 9.65155 56.1701 9.83831 55.4904 10.2118C54.8108 10.5676 54.2385 11.1101 53.7735 11.8394V20.2172H50.3932V7.41035Z" fill="white"/>
<path d="M71.9453 20.6174C70.5323 20.6174 69.4592 20.2261 68.7259 19.4434C67.9927 18.6608 67.626 17.558 67.626 16.135V9.97172H65.6944V7.41035H67.626V3.5683H71.0063V7.41035H74.0915V9.97172H71.0063V15.7081C71.0063 16.5263 71.1583 17.1133 71.4624 17.469C71.7664 17.807 72.3209 17.976 73.1257 17.976C73.6801 17.976 74.2256 17.8515 74.7622 17.6025V20.1638C73.9931 20.4662 73.0542 20.6174 71.9453 20.6174Z" fill="white"/>
<path d="M77.1685 0.5H80.5488V9.03789C81.765 7.68605 83.3389 7.01014 85.2705 7.01014C87.0053 7.01014 88.302 7.4815 89.1605 8.42422C90.019 9.34916 90.4482 10.5854 90.4482 12.1329V20.2172H87.0679V12.453C87.0679 10.5854 86.1916 9.65155 84.4388 9.65155C83.6698 9.65155 82.9454 9.83831 82.2658 10.2118C81.5861 10.5676 81.0138 11.1101 80.5488 11.8394V20.2172H77.1685V0.5Z" fill="white"/>
<path d="M97.8716 20.6174C96.3334 20.6174 95.0725 20.2172 94.0888 19.4168C93.1052 18.5985 92.6133 17.5046 92.6133 16.135C92.6133 14.712 93.0783 13.6003 94.0084 12.7999C94.9384 11.9995 96.244 11.5993 97.9252 11.5993C99.5528 11.5993 100.957 11.9283 102.137 12.5864V12.2396C102.137 11.3324 101.851 10.6743 101.279 10.2652C100.724 9.8561 99.821 9.65155 98.5691 9.65155C97.7821 9.65155 97.0041 9.73159 96.2351 9.89167C95.466 10.034 94.7864 10.2385 94.1962 10.5053V7.86393C94.7327 7.6149 95.4481 7.41035 96.3424 7.25027C97.2545 7.09018 98.1309 7.01014 98.9715 7.01014C101.207 7.01014 102.862 7.49039 103.935 8.45091C105.008 9.39363 105.544 10.7099 105.544 12.3997V20.2172H102.352V18.9632C101.797 19.4968 101.162 19.9059 100.447 20.1905C99.7495 20.4751 98.891 20.6174 97.8716 20.6174ZM98.7032 18.1628C99.4544 18.1628 100.134 18.0205 100.742 17.7359C101.35 17.4335 101.815 17.0244 102.137 16.5085V15.0944C101.153 14.4007 100.027 14.0539 98.7569 14.0539C96.9505 14.0539 96.0473 14.7476 96.0473 16.135C96.0473 16.8109 96.2708 17.3179 96.718 17.6558C97.183 17.9938 97.8447 18.1628 98.7032 18.1628Z" fill="white"/>
<path d="M109.465 20.2172C109.09 20.2172 108.768 20.0927 108.499 19.8436C108.231 19.5768 108.097 19.2567 108.097 18.8831C108.097 18.4918 108.231 18.1628 108.499 17.8959C108.768 17.6291 109.09 17.4957 109.465 17.4957C109.841 17.4957 110.163 17.6291 110.431 17.8959C110.699 18.1628 110.833 18.4918 110.833 18.8831C110.833 19.2567 110.699 19.5768 110.431 19.8436C110.163 20.0927 109.841 20.2172 109.465 20.2172Z" fill="white"/>
</svg>
